<svg width="1200" height="900" viewBox="0 0 1200 900" fill="none" xmlns="http://www.w3.org/2000/svg">
  <rect width="1200" height="900" fill="#111827"/>
  <rect width="1200" height="900" fill="url(#paint0_linear)"/>
  <circle cx="960" cy="164" r="180" fill="#38BDF8" fill-opacity="0.18"/>
  <circle cx="254" cy="710" r="170" fill="#F97316" fill-opacity="0.18"/>
  <rect x="88" y="108" width="1024" height="684" rx="44" fill="#0F172A" fill-opacity="0.4" stroke="rgba(255,255,255,0.16)"/>
  <rect x="140" y="152" width="920" height="392" rx="32" fill="url(#paint1_linear)"/>
  <circle cx="384" cy="328" r="92" fill="#F8FAFC" fill-opacity="0.92"/>
  <circle cx="602" cy="314" r="80" fill="#F8FAFC" fill-opacity="0.9"/>
  <circle cx="812" cy="334" r="88" fill="#F8FAFC" fill-opacity="0.92"/>
  <rect x="276" y="430" width="220" height="94" rx="44" fill="#F8FAFC" fill-opacity="0.92"/>
  <rect x="504" y="410" width="196" height="114" rx="48" fill="#F8FAFC" fill-opacity="0.9"/>
  <rect x="724" y="426" width="220" height="98" rx="46" fill="#F8FAFC" fill-opacity="0.92"/>
  <rect x="140" y="584" width="920" height="124" rx="30" fill="#0B1220" fill-opacity="0.82"/>
  <text x="140" y="654" fill="#F8FAFC" font-family="Arial, sans-serif" font-size="46" font-weight="700">Comunidad y familias</text>
  <text x="140" y="706" fill="#CBD5E1" font-family="Arial, sans-serif" font-size="26">Encuentros, pertenencia y vida social alrededor del club</text>
  <defs>
    <linearGradient id="paint0_linear" x1="600" y1="0" x2="600" y2="900" gradientUnits="userSpaceOnUse">
      <stop stop-color="#0F172A"/>
      <stop offset="1" stop-color="#1F2937"/>
    </linearGradient>
    <linearGradient id="paint1_linear" x1="600" y1="152" x2="600" y2="544" gradientUnits="userSpaceOnUse">
      <stop stop-color="#1E293B"/>
      <stop offset="1" stop-color="#0F172A"/>
    </linearGradient>
  </defs>
</svg>
