<svg width="1200" height="900" viewBox="0 0 1200 900" fill="none" xmlns="http://www.w3.org/2000/svg">
  <rect width="1200" height="900" fill="#0F172A"/>
  <rect width="1200" height="900" fill="url(#paint0_linear)"/>
  <circle cx="206" cy="214" r="164" fill="#F97316" fill-opacity="0.18"/>
  <circle cx="984" cy="686" r="190" fill="#38BDF8" fill-opacity="0.18"/>
  <rect x="92" y="110" width="1016" height="680" rx="42" fill="#0B1220" fill-opacity="0.4" stroke="rgba(255,255,255,0.16)"/>
  <rect x="148" y="164" width="904" height="360" rx="30" fill="url(#paint1_linear)"/>
  <path d="M218 440C314 332 404 294 496 294C598 294 660 360 732 418C806 474 860 504 930 504C986 504 1016 494 1052 474V524H148V478C170 468 196 454 218 440Z" fill="#F97316" fill-opacity="0.85"/>
  <rect x="148" y="576" width="904" height="122" rx="28" fill="#101826" fill-opacity="0.84"/>
  <rect x="178" y="204" width="150" height="150" rx="28" fill="#F8FAFC" fill-opacity="0.92"/>
  <text x="212" y="248" fill="#0F172A" font-family="Arial, sans-serif" font-size="24" font-weight="700">25</text>
  <text x="212" y="284" fill="#475569" font-family="Arial, sans-serif" font-size="20" font-weight="600">AGO</text>
  <text x="178" y="642" fill="#F8FAFC" font-family="Arial, sans-serif" font-size="46" font-weight="700">Eventos y torneos</text>
  <text x="178" y="694" fill="#CBD5E1" font-family="Arial, sans-serif" font-size="26">Calendario activo, jornadas especiales y momentos del club</text>
  <defs>
    <linearGradient id="paint0_linear" x1="600" y1="0" x2="600" y2="900" gradientUnits="userSpaceOnUse">
      <stop stop-color="#111827"/>
      <stop offset="1" stop-color="#0F172A"/>
    </linearGradient>
    <linearGradient id="paint1_linear" x1="600" y1="164" x2="600" y2="524" gradientUnits="userSpaceOnUse">
      <stop stop-color="#1E293B"/>
      <stop offset="1" stop-color="#0F172A"/>
    </linearGradient>
  </defs>
</svg>
