<svg width="1200" height="900" viewBox="0 0 1200 900" fill="none" xmlns="http://www.w3.org/2000/svg">
  <rect width="1200" height="900" fill="#0F172A"/>
  <rect width="1200" height="900" fill="url(#paint0_linear)"/>
  <circle cx="240" cy="168" r="180" fill="#38BDF8" fill-opacity="0.18"/>
  <circle cx="966" cy="690" r="196" fill="#F97316" fill-opacity="0.18"/>
  <rect x="84" y="116" width="1032" height="668" rx="44" fill="rgba(15,23,42,0.35)" stroke="rgba(255,255,255,0.16)"/>
  <rect x="140" y="588" width="920" height="120" rx="28" fill="#0B1220" fill-opacity="0.84"/>
  <rect x="140" y="160" width="920" height="380" rx="32" fill="url(#paint1_linear)"/>
  <path d="M140 444C280 400 340 396 470 430C594 462 690 520 804 494C892 474 966 430 1060 382V540H140V444Z" fill="#16A34A" fill-opacity="0.9"/>
  <rect x="490" y="286" width="220" height="220" rx="20" stroke="#E2E8F0" stroke-width="8"/>
  <path d="M600 286V506" stroke="#E2E8F0" stroke-width="8"/>
  <path d="M490 396H710" stroke="#E2E8F0" stroke-width="8"/>
  <circle cx="600" cy="396" r="54" stroke="#E2E8F0" stroke-width="8"/>
  <g filter="url(#filter0_d)">
    <circle cx="600" cy="396" r="22" fill="#F8FAFC"/>
  </g>
  <text x="140" y="660" fill="#F8FAFC" font-family="Arial, sans-serif" font-size="46" font-weight="700">Entrenamientos y cancha</text>
  <text x="140" y="712" fill="#CBD5E1" font-family="Arial, sans-serif" font-size="26">Practica semanal · ritmo de competencia · vida deportiva</text>
  <defs>
    <filter id="filter0_d" x="558" y="358" width="84" height="84" filterUnits="userSpaceOnUse" color-interpolation-filters="sRGB">
      <feFlood flood-opacity="0" result="BackgroundImageFix"/>
      <feColorMatrix in="SourceAlpha" type="matrix" values="0 0 0 0 0 0 0 0 0 0 0 0 0 0 0 0 0 0 127 0" result="hardAlpha"/>
      <feOffset dy="4"/>
      <feGaussianBlur stdDeviation="10"/>
      <feColorMatrix type="matrix" values="0 0 0 0 0.059 0 0 0 0 0.09 0 0 0 0 0.165 0 0 0 0.32 0"/>
      <feBlend mode="normal" in2="BackgroundImageFix" result="effect1_dropShadow"/>
      <feBlend mode="normal" in="SourceGraphic" in2="effect1_dropShadow" result="shape"/>
    </filter>
    <linearGradient id="paint0_linear" x1="600" y1="0" x2="600" y2="900" gradientUnits="userSpaceOnUse">
      <stop stop-color="#0F172A"/>
      <stop offset="1" stop-color="#111827"/>
    </linearGradient>
    <linearGradient id="paint1_linear" x1="600" y1="160" x2="600" y2="540" gradientUnits="userSpaceOnUse">
      <stop stop-color="#1E293B"/>
      <stop offset="1" stop-color="#0F172A"/>
    </linearGradient>
  </defs>
</svg>
